<svg xmlns="http://www.w3.org/2000/svg" xmlns:xlink="http://www.w3.org/1999/xlink" aria-hidden="true" focusable="false" width="100" height="100" style="-ms-transform: rotate(360deg); -webkit-transform: rotate(360deg); transform: rotate(360deg);" preserveAspectRatio="xMidYMid meet" viewBox="0 0 128 128"><path d="M19.67 69.3c0 4.21-3.81 7.62-8.5 7.62S3.33 70.81 3.33 66.6s1.31-7.67 6-7.67 10.34 6.16 10.34 10.37z" fill="#ffd"/><path d="M124.67 67.26c0 4.21-2.81 9.67-7.5 9.67s-13-3.29-13-7.5 4.47-10.83 9.17-10.83 11.33 4.45 11.33 8.66z" fill="#ffd"/><linearGradient id="IconifyId-16d74955930-650bcf-194" x1="63.44" x2="63.44" y1="51.294" y2="71.834" gradientUnits="userSpaceOnUse"><stop stop-color="#F5BE87" offset="0"/><stop stop-color="#EBB27B" offset=".304"/><stop stop-color="#D0945D" offset=".847"/><stop stop-color="#C78A53" offset=".998"/></linearGradient><path d="M40.59 60.48s8.33-7.47 25.84-8.11 19.86 4.06 19.86 4.06v10.46S57.68 61.71 44.22 75l-3.63-14.52z" fill="url(#IconifyId-16d74955930-650bcf-194)"/><path d="M68.86 43.39s-4.2-.35-9.25-.5c-1.84-1.92-5.18-3.21-9-3.21-4.77 0-8.79 2-10.09 4.74-.49.1-.97.2-1.44.3-.57.12-1.13.25-1.68.38-.88-.54-1.93-.85-3.07-.85-2.43 0-4.48 1.45-5.25 3.46l-.81.33c-.51-.15-1.04-.25-1.6-.25-2.32 0-4.27 1.4-4.97 3.33-.53.28-1.06.57-1.61.88-2.19.29-4.06 1.51-5.11 3.22-.78.56-1.55 1.14-2.28 1.74-3.68.2-6.61 3.01-6.61 6.47 0 .64.1 1.26.29 1.85-.29.99-.41 2.01-.32 3.04.28 3.19 1.04 7.36 3.51 11.61.03.01.06.02.09.02 1.22 1.36 6.3 3.46 10.07 4.82 1.36 2.3 4.36 3.89 7.86 3.89 1.4 0 2.71-.26 3.88-.71 1.53 1.85 4.22 3.07 7.28 3.07 2 0 3.84-.53 5.31-1.41.28.03.55.08.83.11 1.19.81 2.66 1.3 4.25 1.3.64 0 1.26-.09 1.86-.23 1.26 1.91 3.53 3.18 6.12 3.18 2.44 0 4.59-1.13 5.89-2.85.18.01.36.01.54.01a7.47 7.47 0 004.73 1.66c1.77 0 3.39-.59 4.64-1.58 3.3-.06 6.52-.21 9.67-.45 1.38.72 3.04 1.14 4.84 1.14 2.75 0 5.2-.99 6.78-2.53 10.98-1.87 19.9-5.21 24.71-10.31 13.91-14.72-10.29-33.56-50.06-35.67zm12.7 22.28c0 2.86-5.37 4.16-12.62 4.53-.43.02-.89.03-1.33.05-1.26-1.02-2.91-1.64-4.72-1.64a7.7 7.7 0 00-3.05.63c-1.13-2.29-3.62-3.88-6.52-3.88-2.2 0-4.16.91-5.48 2.35-.13-.1-.25-.2-.36-.3-.51-.5-.79-1.08-.79-1.74 0-.6.24-1.18.67-1.73.38.06.77.1 1.17.1 2.84 0 5.28-1.52 6.45-3.73.14-.03.27-.06.42-.09 2.57-.54 5.55-.86 8.73-.86 9.62-.01 17.43 2.82 17.43 6.31z" fill="#FFFFE7"/><linearGradient id="IconifyId-16d74955930-650bcf-195" x1="65.195" x2="65.195" y1="84.168" y2="109.04" gradientUnits="userSpaceOnUse"><stop stop-color="#F5BE87" offset="0"/><stop stop-color="#ECB37B" offset=".319"/><stop stop-color="#D4965D" offset=".889"/><stop stop-color="#CF9056" offset="1"/></linearGradient><path d="M9.04 74.76c-.03-.01-1.33 27.65 30.75 32.89 62.78 10.25 80.72-15.38 81.57-34.17C91.09 89.51 14.09 76.93 9.04 74.76z" fill="url(#IconifyId-16d74955930-650bcf-195)"/><path d="M68.18 42.28s-4.2-.34-9.25-.48c-1.84-1.87-5.18-3.12-8.99-3.12-4.77 0-8.79 1.94-10.08 4.61-.49.1-.97.19-1.44.29-.57.12-1.13.25-1.68.37a6.01 6.01 0 00-3.06-.83c-2.43 0-4.48 1.41-5.24 3.36-.27.1-.54.21-.81.32-.51-.15-1.03-.25-1.59-.25-2.32 0-4.26 1.36-4.96 3.23-.53.27-1.06.55-1.6.85-2.19.28-4.06 1.47-5.11 3.13-.78.54-1.55 1.11-2.28 1.69-3.68.19-6.61 2.93-6.61 6.29 0 .62.1 1.22.29 1.79-.29.97-.4 1.95-.32 2.95.28 3.1 1.04 7.15 3.5 11.28.03.01.06.02.09.02 1.22 1.32 4.11 3.56 7.88 4.87 1.36 2.23 6.55 3.59 10.04 3.59 1.4 0 2.71-.25 3.88-.69 1.53 1.79 4.22 2.99 7.28 2.99 2 0 3.84-.51 5.31-1.37.28.03.55.07.83.11 1.19.79 2.66 1.26 4.25 1.26a7.5 7.5 0 001.85-.23c1.26 1.85 2.38.59 4.98.59 2.44 0 5.73 1.4 7.02-.27.18.01.36.01.54.01 1.26 1 2.92 1.61 4.73 1.61 1.77 0 3.38-.58 4.63-1.53 3.29-.05 6.52-.2 9.66-.43 1.38.7 3.04 1.1 4.83 1.1 2.75 0 5.19-.96 6.77-2.46 10.97-1.82 19.88-5.07 24.69-10.02 13.9-14.28-10.29-32.59-50.03-34.63z" fill="#ffd"/><path d="M81.56 65.67c0 2.86-5.37 4.16-12.62 4.53-.43.02-.89.03-1.33.05-1.26-1.02-2.91-1.64-4.72-1.64a7.7 7.7 0 00-3.05.63c-1.13-2.29-3.62-3.88-6.52-3.88-2.2 0-4.16.91-5.48 2.35-.13-.1-.25-.2-.36-.3-.51-.5-.79-1.08-.79-1.74 0-.6.24-1.18.67-1.73.38.06.77.1 1.17.1 2.84 0 5.28-1.52 6.45-3.73.14-.03.27-.06.42-.09 2.57-.54 5.55-.86 8.73-.86 9.62-.01 17.43 2.82 17.43 6.31z" fill="none" opacity=".2"/><path d="M92.99 85.18c0 3.64-5.54 6-10.32 6s-6.99-2.36-6.99-6 3.87-6.58 8.65-6.58 8.66 2.94 8.66 6.58z" fill="#ffd"/><path d="M80.24 87.33c0 3.08-3.86 4.35-8.57 4.35s-8.49-1.27-8.49-4.35 3.82-5.57 8.53-5.57 8.53 2.5 8.53 5.57z" fill="#ffd"/><ellipse cx="17.7" cy="77" rx="8.53" ry="5.57" fill="#ffd"/><path d="M102.65 79.31c1.55 3.29-.92 6.07-5.24 8.11s-8.85 2.57-10.4-.72.69-7.61 5.01-9.65c4.32-2.03 9.08-1.02 10.63 2.26z" fill="#ffd"/><ellipse transform="rotate(-25.302 104.342 79.766)" cx="104.33" cy="79.76" rx="8.65" ry="6.58" fill="#ffd"/><ellipse transform="rotate(-25.302 110.841 76.515)" cx="110.83" cy="76.51" rx="8.65" ry="6.58" fill="#ffd"/><radialGradient id="IconifyId-16d74955930-650bcf-196" cx="42.989" cy="12.648" r="80.859" gradientTransform="rotate(-32.574 82.342 60.294)" gradientUnits="userSpaceOnUse"><stop stop-color="#FFD1A3" offset="0"/><stop stop-color="#FAC897" offset=".247"/><stop stop-color="#EEB179" offset=".686"/><stop stop-color="#E39E5F" offset="1"/></radialGradient><path d="M48.24 18.39C15.17 19.93-3.16 49.77 7.56 64.05 15.48 74.6 28.72 81.17 41.7 82.38c25.27 2.34 53.46 2.58 74.16-14.55 3.19-2.64 5.92-6.01 7.14-9.97 2.16-6.99-1.28-14.35-5.67-19.74C101.44 18.59 78.04 17 48.24 18.39z" fill="url(#IconifyId-16d74955930-650bcf-196)"/><path d="M80.7 42.11c.35 4.3-34.15 4.26-32.34-1.41.97-3.04 9.11-6.22 15.82-5.93 10.82.47 16.26 4.19 16.52 7.34z" fill="#D69062" opacity=".51"/><path d="M41.11 36.5c.28 1.04.97 1.83 1.75 2.44.8.61 1.69 1.09 2.63 1.49 1.91.8 3.82 1.56 5.8 2.09.97.31 1.99.48 2.97.75 1 .19 2 .4 3.01.52 2.01.3 4.05.45 6.08.45 2.03.01 4.07-.08 6.08-.37 2.03-.2 4.01-.69 6-1.16.98-.3 1.97-.55 2.94-.91.48-.17.98-.33 1.46-.51l1.43-.59c.98-.38 1.91-.78 2.62-1.41.35-.32.61-.72.75-1.19.14-.46.14-1-.12-1.47.37.38.55.97.52 1.53-.03.57-.25 1.14-.59 1.62-.69.96-1.68 1.55-2.57 2.1-1.82 1.15-3.78 2.07-5.79 2.85-4.06 1.51-8.41 2.24-12.76 2.23-4.34-.09-8.7-.81-12.72-2.44-2.03-.74-3.93-1.81-5.76-2.92-.9-.6-1.8-1.27-2.52-2.12-.7-.83-1.22-1.91-1.21-2.98z" fill="#B77B54"/><ellipse transform="rotate(-32.574 25.517 39.533)" cx="25.52" cy="39.53" rx="2.33" ry="1.04" fill="#FFFEC2"/><ellipse transform="rotate(-87.851 26.765 50.61)" cx="26.76" cy="50.61" rx="1.74" ry=".77" fill="#FFFEC2"/><ellipse transform="rotate(-87.851 40.919 59.679)" cx="40.92" cy="59.68" rx="1.74" ry=".77" fill="#FFFEC2"/><ellipse transform="rotate(-82.918 36.36 53.439)" cx="36.36" cy="53.44" rx=".82" ry="1.84" fill="#FFFEC2"/><ellipse transform="rotate(-82.918 28.833 58.199)" cx="28.84" cy="58.2" rx=".82" ry="1.84" fill="#FFFEC2"/><ellipse transform="rotate(-43.805 48.31 57.368)" cx="48.31" cy="57.37" rx=".74" ry="1.66" fill="#FFFEC2"/><ellipse transform="rotate(-50.384 42.593 49.307)" cx="42.59" cy="49.3" rx=".81" ry="1.83" fill="#FFFEC2"/><ellipse transform="rotate(-87.851 66.594 62.486)" cx="66.59" cy="62.48" rx="1.74" ry=".77" fill="#FFFEC2"/><ellipse transform="rotate(-82.918 74.66 63.676)" cx="74.67" cy="63.68" rx=".82" ry="1.84" fill="#FFFEC2"/><ellipse transform="rotate(-50.384 82.421 61.182)" cx="82.42" cy="61.18" rx=".81" ry="1.83" fill="#FFFEC2"/><ellipse transform="rotate(-50.384 93.921 59.682)" cx="93.92" cy="59.68" rx=".81" ry="1.83" fill="#FFFEC2"/><ellipse transform="rotate(-83.679 48.61 50.4)" cx="48.61" cy="50.4" rx="1.83" ry=".81" fill="#FFFEC2"/><ellipse transform="rotate(-2.563 40.077 44.35)" cx="40.05" cy="44.34" rx="1.83" ry=".81" fill="#FFFEC2"/><ellipse transform="rotate(-2.563 21.184 45.944)" cx="21.17" cy="45.93" rx="1.83" ry=".81" fill="#FFFEC2"/><ellipse transform="rotate(-87.851 31.433 43.517)" cx="31.43" cy="43.52" rx="1.94" ry=".86" fill="#FFFEC2"/><ellipse transform="rotate(-87.851 34.71 31.217)" cx="34.71" cy="31.22" rx="2.33" ry="1.04" fill="#FFFEC2"/><ellipse transform="rotate(-57.609 50.745 33.01)" cx="50.74" cy="33.01" rx="1.04" ry="2.33" fill="#FFFEC2"/><ellipse transform="rotate(-71.21 44.92 34.051)" cx="44.92" cy="34.05" rx="1.46" ry=".65" fill="#FFFEC2"/><ellipse transform="rotate(-2.563 73.24 30.188)" cx="73.2" cy="30.19" rx="2.33" ry="1.04" fill="#FFFEC2"/><ellipse transform="rotate(-66.66 87.061 32.354)" cx="87.07" cy="32.35" rx="1.04" ry="2.33" fill="#FFFEC2"/><ellipse transform="rotate(-66.66 99.998 34.88)" cx="100.01" cy="34.88" rx="1.04" ry="2.33" fill="#FFFEC2"/><ellipse transform="rotate(-21.22 84.213 47.107)" cx="84.2" cy="47.11" rx="2.33" ry="1.04" fill="#FFFEC2"/><ellipse transform="rotate(-77.573 91.838 44.954)" cx="91.84" cy="44.95" rx="1.93" ry=".86" fill="#FFFEC2"/><ellipse transform="rotate(-67.114 88.903 38.97)" cx="88.9" cy="38.97" rx=".86" ry="1.93" fill="#FFFEC2"/><ellipse transform="rotate(-12.381 59.423 38.777)" cx="59.42" cy="38.77" rx=".71" ry="1.6" fill="#FFFEC2" opacity=".62"/><ellipse transform="rotate(-12.381 60.621 30.78)" cx="60.61" cy="30.78" rx=".71" ry="1.6" fill="#FFFEC2" opacity=".62"/><ellipse transform="rotate(-12.381 79.698 35.68)" cx="79.69" cy="35.68" rx=".77" ry="1.73" fill="#FFFEC2"/><ellipse transform="rotate(-46.455 64.497 37.972)" cx="64.49" cy="37.97" rx="1.73" ry=".77" fill="#FFFEC2" opacity=".62"/><ellipse transform="rotate(-1.403 70.514 40.136)" cx="70.48" cy="40.2" rx="1.73" ry=".77" fill="#FFFEC2" opacity=".62"/><ellipse transform="rotate(-42.853 57.76 58.441)" cx="57.76" cy="58.44" rx="1.55" ry=".69" fill="#FFFEC2"/><ellipse transform="rotate(-86.365 57.384 50.94)" cx="57.38" cy="50.94" rx="1.04" ry="2.33" fill="#FFFEC2"/><ellipse transform="rotate(-87.851 70.55 53.298)" cx="70.55" cy="53.3" rx="1.44" ry=".64" fill="#FFFEC2"/><ellipse transform="rotate(-60.549 64.965 50.908)" cx="64.97" cy="50.91" rx=".64" ry="1.44" fill="#FFFEC2"/><ellipse transform="rotate(-66.296 81.534 51.856)" cx="81.53" cy="51.85" rx=".66" ry="1.48" fill="#FFFEC2"/><ellipse transform="rotate(-66.296 104.066 51.587)" cx="104.06" cy="51.58" rx=".66" ry="1.48" fill="#FFFEC2"/><ellipse transform="rotate(-77.573 74.768 50.98)" cx="74.77" cy="50.98" rx=".66" ry="1.48" fill="#FFFEC2"/><ellipse transform="rotate(-85.003 94.839 54.28)" cx="94.84" cy="54.28" rx=".71" ry="1.61" fill="#FFFEC2"/><ellipse transform="rotate(-85.003 96.821 42.29)" cx="96.82" cy="42.29" rx=".71" ry="1.61" fill="#FFFEC2"/><ellipse transform="rotate(-66.871 87.663 57.93)" cx="87.67" cy="57.93" rx="1.07" ry=".48" fill="#FFFEC2"/><ellipse transform="rotate(-25.109 103.135 44.397)" cx="103.12" cy="44.4" rx=".86" ry="1.93" fill="#FFFEC2"/><ellipse transform="rotate(-25.109 97.925 49.425)" cx="97.92" cy="49.43" rx=".86" ry="1.93" fill="#FFFEC2"/><ellipse transform="rotate(-39.79 75.349 57.943)" cx="75.35" cy="57.95" rx="1.52" ry=".67" fill="#FFFEC2"/><ellipse cx="10.17" cy="75.68" rx="4.5" ry="4.75" fill="#ffd"/><path d="M123.67 71.68c0 2.62-.76 6-3.25 6s-4.5-2.13-4.5-4.75 2.01-4.75 4.5-4.75c2.48 0 3.25.88 3.25 3.5z" fill="#ffd"/><ellipse transform="rotate(-60 13.689 72.42)" cx="13.69" cy="72.42" rx="3.27" ry="6.5" fill="#ffd"/><ellipse transform="rotate(-87.255 20.354 77.414)" cx="20.36" cy="77.42" rx="3.27" ry="6.5" fill="#ffd"/><path d="M117.75 69.39c.66 1.68-1.52 4.11-4.87 5.41s-12.89 5.81-13.55 4.13 3.32-5.36 6.67-6.67c3.35-1.3 11.09-4.56 11.75-2.87z" fill="#ffd"/><path d="M123.5 66.74c.66 1.68-1.52 4.11-4.87 5.41-3.35 1.31-6.59 1-7.25-.68s-.64-3.55 2.7-4.86c3.35-1.3 8.77-1.55 9.42.13z" fill="#ffd"/><path d="M62.46 21.01c26.34 0 41.57 5.5 52.55 19 2.26 2.78 7.29 9.99 5.13 16.97-.32 1.05-.82 2.13-1.47 3.2-.78 1.29-.48 2.96.7 3.9 1.59 1.26 2.29 2.51 2.29 3.19 0 1.08-.27 2.29-.75 3.4-.16.37-.24.76-.25 1.16-.02 1.59-.37 2.59-.58 2.92-1.1.31-1.94 1.22-2.14 2.36-.98 5.55-4.01 13.51-12.88 19.92-9.14 6.61-22.2 9.96-38.82 9.96-7.88 0-16.62-.77-25.97-2.3-9.33-1.52-16.52-5.19-21.38-10.89-4.13-4.85-5.78-10.27-6.43-13.96a2.995 2.995 0 00-2.5-2.44c-.74-.12-1.31-.85-1.31-1.72 0-.21.04-.43.13-.66.35-.97.18-2.04-.46-2.86-1.2-1.54-2-3.78-2-5.56 0-2.08.39-3.56 1.09-4.15a2.99 2.99 0 00.88-3.3c-1.87-5.2-.38-12.19 3.97-18.69 7.52-11.23 21.01-18.36 36.1-19.06 5.5-.27 9.97-.39 14.1-.39m0-3c-4.56 0-9.3.15-14.21.38C17.94 19.8.03 44.96 5.49 60.15c-1.61 1.37-2.15 3.75-2.15 6.44 0 2.34.97 5.26 2.64 7.41-.19.52-.3 1.08-.3 1.68 0 2.39 1.67 4.34 3.85 4.68 1.48 8.36 7.36 23.55 30.28 27.29 9.9 1.62 18.68 2.34 26.46 2.34 38.01 0 51.99-17.29 54.65-32.36 2.05-.4 2.73-3.35 2.76-5.77.65-1.49 1-3.12 1-4.6 0-1.95-1.43-3.95-3.43-5.54.73-1.22 1.34-2.5 1.76-3.87 2.16-6.99-1.28-14.35-5.67-19.74-13.28-16.3-31.79-20.1-54.88-20.1z" fill="#424242" opacity=".2"/></svg>