<svg
  class="mx-auto"
  xmlns="http://www.w3.org/2000/svg"
  xmlns:xlink="http://www.w3.org/1999/xlink"
  aria-hidden="true"
  focusable="false"
  width="100"
  height="100"
  style="-ms-transform: rotate(360deg); -webkit-transform: rotate(360deg); transform: rotate(360deg);"
  preserveAspectRatio="xMidYMid meet"
  viewBox="0 0 24 24"
>
  <path
    d="M13.843 15.87A4 4 0 0020 12.5c0-1.238-.623-3.136-1.58-4.698C17.513 6.322 16.524 5.5 16 5.5s-1.513.822-2.42 2.302a12.214 12.214 0 00-.935 1.884 12.584 12.584 0 00-1.277-2.024C12.522 5.41 14.26 3.5 16 3.5c3 0 6 5.686 6 9a6 6 0 01-8.943 5.23c.36-.563.63-1.19.786-1.86zM8 20.5a6 6 0 01-6-6c0-3.314 3-9 6-9s6 5.686 6 9a6 6 0 01-6 6zm0-2a4 4 0 004-4c0-1.238-.623-3.136-1.58-4.698C9.513 8.322 8.524 7.5 8 7.5s-1.513.822-2.42 2.302C4.623 11.364 4 13.262 4 14.5a4 4 0 004 4z"
    fill="#626262"
  ></path>
</svg>