<svg xmlns="http://www.w3.org/2000/svg" xmlns:xlink="http://www.w3.org/1999/xlink" aria-hidden="true" focusable="false" width="100" height="100" style="-ms-transform: rotate(360deg); -webkit-transform: rotate(360deg); transform: rotate(360deg);" preserveAspectRatio="xMidYMid meet" viewBox="0 0 128 128"><radialGradient id="IconifyId-16d74939bdf-535064-170" cx="42.082" cy="71.242" r="76.12" gradientTransform="matrix(1 0 0 .7783 0 15.796)" gradientUnits="userSpaceOnUse"><stop stop-color="#66BDD6" offset="0"/><stop stop-color="#63B9D2" offset=".313"/><stop stop-color="#5AAEC7" offset=".608"/><stop stop-color="#4B9CB4" offset=".896"/><stop stop-color="#4493AB" offset="1"/></radialGradient><path d="M123.84 64.83l-59.99 5.35h-.07L4.15 64.19S-.25 123.96 63.78 124h.06c64.54-.04 60-59.17 60-59.17z" fill="url(#IconifyId-16d74939bdf-535064-170)"/><linearGradient id="IconifyId-16d74939bdf-535064-171" x1="4.222" x2="123.78" y1="65.523" y2="65.523" gradientUnits="userSpaceOnUse"><stop stop-color="#96D7F2" offset=".002"/><stop stop-color="#7CC4E2" offset="1"/></linearGradient><path d="M123.78 64.52c0 8.83-26.76 16.99-59.78 16.99S4.22 73.35 4.22 64.52 30.99 49.54 64 49.54s59.78 6.15 59.78 14.98z" fill="url(#IconifyId-16d74939bdf-535064-171)"/><linearGradient id="IconifyId-16d74939bdf-535064-172" x1="15.825" x2="119.74" y1="53.836" y2="75.655" gradientUnits="userSpaceOnUse"><stop stop-color="#24778F" offset="0"/><stop stop-color="#1A5C70" offset="1"/></linearGradient><path d="M116.31 63.8c0 4.95-22.31 9.86-51.35 9.86-28.89 0-53.27-4.91-53.27-9.86S35.11 54.83 64 54.83s52.31 4.02 52.31 8.97z" fill="url(#IconifyId-16d74939bdf-535064-172)"/><linearGradient id="IconifyId-16d74939bdf-535064-173" x1="102.62" x2="93.019" y1="55.917" y2="68.304" gradientUnits="userSpaceOnUse"><stop stop-color="#212121" stop-opacity=".3" offset="0"/><stop stop-color="#212121" stop-opacity=".6" offset="1"/></linearGradient><path d="M111.69 55.37s-3.89.12-7.81 3.55c-4.33 3.79-9 12.81-9 12.81C89.31 72.84 81.58 73 81.71 73s4.72-7.8 7.79-11.19c3.26-3.59 10.66-9.36 10.66-9.36s7.75 1.18 11.53 2.92z" fill="url(#IconifyId-16d74939bdf-535064-173)"/><path d="M64 52.54c37.8 0 56.78 7.69 56.78 11.99 0 .24.03.5.09.77.13 2.49.81 24.32-13.51 39.79-9.76 10.55-24.4 15.9-43.46 15.92h-.11c-18.72-.01-33.13-5.3-42.81-15.72C5.66 88.79 7.23 64.66 7.24 64.42c.12-1.57 3.54-4.99 15.6-7.88 10.77-2.58 25.39-4 41.16-4m0-3c-32.6 0-59.09 6.01-59.75 14.66 0 0-4.5 59.76 59.53 59.8h.06c64.53-.04 59.99-59.17 59.99-59.17s-.06-.2-.06-.31c.01-8.83-26.76-14.98-59.77-14.98z" fill="#424242" opacity=".2"/><defs><path id="IconifyId-16d74939bdf-535064-174" d="M116.4 63.14c-.08.15-.17.31-.25.46-2.73 4.91-12.52 6.49-17.48 7.33-11.66 1.98-22.86 2.74-34.67 2.74-2.57 0-6.43-.14-9-.21-2.13-.06-3.63-.56-5.68-1.13-1.37-.38-1.32-.34-1.73-1.92-.28-1.09-.46-2.21-.58-3.33-.24-2.13-.23-4.29-.24-6.43 0-2.08 0-4.18.51-6.2.52-2.04 1.54-3.9 2.56-5.74 2.03-3.69 4.07-7.38 6.52-10.81C67.6 22.21 87.3 13.49 106.59 13.99c3.26.08 6.56.42 9.63 1.51 3.08 1.09 5.94 3 7.72 5.74 3.02 4.65 2.47 10.71 1.36 16.14-1.78 8.76-4.59 17.87-8.9 25.76z"/></defs><clipPath id="IconifyId-16d74939bdf-535064-175"><use xlink:href="#IconifyId-16d74939bdf-535064-174"/></clipPath><g clip-path="url(#IconifyId-16d74939bdf-535064-175)"><linearGradient id="IconifyId-16d74939bdf-535064-176" x1="94.29" x2="77.016" y1="24.436" y2="66.487" gradientTransform="rotate(-4.755 74.006 69.432)" gradientUnits="userSpaceOnUse"><stop stop-color="#EAF0F0" offset=".019"/><stop stop-color="#D4DCDE" offset=".312"/><stop stop-color="#A9B5B3" offset=".995"/></linearGradient><path d="M50.61 89.5c2.15-1.08 4.32-2.14 6.33-3.46 0 0 8.76-4 12.98-10.78 8.69-13.99 24.13-35.07 30.62-42.83 5.58-6.66 12.53-10.38 17.74-8.67 4.81 1.58 6.82 5.32 2.61 10.76-5.1 6.59-35.63 24.76-46.37 51.93-2.68 6.78-7.22 20.54-17.1 26.61-6.97 4.28-15.93 5.01-23.52 2.4-1.58-.54-3.17-1.32-4.16-2.76-1.2-1.75-1.3-4.22-.63-6.32.67-2.11 2.01-3.9 3.48-5.45 5.11-5.39 11.67-8.24 18.02-11.43z" fill="url(#IconifyId-16d74939bdf-535064-176)"/></g><g clip-path="url(#IconifyId-16d74939bdf-535064-175)"><linearGradient id="IconifyId-16d74939bdf-535064-177" x1="72.556" x2="77.268" y1="64.535" y2="71.601" gradientTransform="rotate(-4.755 74.006 69.432)" gradientUnits="userSpaceOnUse"><stop stop-color="#424242" stop-opacity=".2" offset="0"/><stop stop-color="#424242" stop-opacity=".4" offset=".848"/></linearGradient><path d="M114.92 25.47c5.87-.51 4.86 4.67 3.13 6.44-1.32 1.35-4.6 4.26-8.57 7.5-11.32 9.22-29.06 24.24-37.71 45.28-.24.62.31 2.29.03 3.01-2.65 6.89-7.08 18.43-15.47 23.58-3.21 1.97-7.01 3.19-10.98 3.52-3.66.3-7.38-.15-10.76-1.31-1.59-.55-2.55-1.15-3.11-1.97-.74-1.08-.88-2.84-.36-4.5.48-1.51 1.44-2.99 3.01-4.65 4.25-4.48 9.56-7.1 15.18-9.87.75-.37 1.5-.74 2.24-1.11l.44-.22c1.98-.99 4.03-2.02 5.97-3.28 1.27-.6 9.5-4.7 13.73-11.51 8.66-13.95 24.2-35.13 30.45-42.59 4.08-4.89 8.86-8 12.78-8.32m-.17-2.09c-4.58.38-9.82 3.8-14.21 9.05-6.49 7.76-21.94 28.85-30.62 42.83-4.21 6.78-12.98 10.78-12.98 10.78-2.01 1.33-4.17 2.38-6.33 3.46-6.35 3.18-12.9 6.03-18.01 11.42-1.48 1.56-2.82 3.35-3.48 5.45-.67 2.11-.57 4.58.63 6.32.99 1.44 2.58 2.22 4.16 2.76 3.68 1.26 7.67 1.74 11.61 1.41 4.19-.35 8.31-1.61 11.91-3.82 9.88-6.06 14.42-19.82 17.1-26.61C85.27 59.26 115.8 41.09 120.9 34.5c4.21-5.44 2.19-9.18-2.61-10.76a9.485 9.485 0 00-3.54-.36z" fill="url(#IconifyId-16d74939bdf-535064-177)"/></g></svg>